# WaveFront *.obj file (generated by Autodesk ATF)

mtllib bcd6fa16-2982-4c12-99a0-4569a5f3f6c6.mtl

g Body1

v 2.477525 -2.108467 -0.804997
v 2.456481 -2.108467 -0.798159
v 2.485648 -2.643746 -0.708395
v 3.383294 -2.643746 -1.000058
v 3.358654 -2.421271 -1.033299
v 3.768145 -2.587116 -1.045874
v 3.736837 -2.584126 -1.000648
v 3.695908 -2.575320 -0.963899
v 3.647583 -2.561175 -0.937625
v 3.594488 -2.542461 -0.923253
v 3.539508 -2.520194 -0.921565
v 3.485631 -2.495584 -0.932651
v 3.435785 -2.469969 -0.955911
v 3.392678 -2.444741 -0.990079
v 3.425751 -2.643746 -0.962468
v 3.475950 -2.643746 -0.936093
v 3.530992 -2.643746 -0.922456
v 3.587699 -2.643746 -0.922345
v 3.642794 -2.643746 -0.935766
v 3.693096 -2.643746 -0.961944
v 3.735700 -2.643746 -0.999367
v 3.768145 -2.643746 -1.045874
v 2.456481 -2.643746 -0.798159
v 3.559805 -2.643746 -1.156651
v 3.559805 -2.477086 -1.156651
v 3.559805 -2.961500 -1.156651
v 0.000000 -2.961500 0.000000
v -0.017500 -2.961500 -0.053859
v 3.565166 -2.961500 -1.217938
v 5.480314 -2.961500 -0.199636
v 5.453727 -2.961500 -0.149634
v 2.456481 2.108467 -0.798159
v 2.477525 2.108467 -0.804997
v 3.358654 2.421271 -1.033299
v 3.383294 2.643746 -1.000058
v 2.485648 2.643746 -0.708395
v 2.456481 2.643746 -0.798159
v 3.559805 2.643746 -1.156651
v 3.559805 2.961500 -1.156651
v 0.000000 2.961500 0.000000
v 3.559805 2.477086 -1.156651
v 3.392678 2.444741 -0.990079
v 3.435785 2.469969 -0.955911
v 3.485631 2.495584 -0.932651
v 3.539508 2.520194 -0.921565
v 3.594488 2.542461 -0.923253
v 3.647583 2.561175 -0.937625
v 3.695908 2.575320 -0.963899
v 3.736837 2.584126 -1.000648
v 3.768145 2.587116 -1.045874
v 3.768145 2.643746 -1.045874
v 3.735700 2.643746 -0.999367
v 3.693096 2.643746 -0.961944
v 3.642794 2.643746 -0.935766
v 3.587699 2.643746 -0.922345
v 3.530992 2.643746 -0.922456
v 3.475950 2.643746 -0.936093
v 3.425751 2.643746 -0.962468
v 5.453727 2.961500 -0.149634
v -0.017500 2.961500 -0.053859
v 3.565166 2.961500 -1.217938
v 5.480314 2.961500 -0.199636
vt -0.000000 -0.048691 0.000000
vt 0.000000 0.005663 0.000000
vt -0.002213 -0.048691 0.000000
vt -0.093068 -0.016928 0.000000
vt -0.094384 0.005663 0.000000
vt -0.000000 0.055185 0.000000
vt -0.000299 0.049672 0.000000
vt 0.005663 0.055185 0.000000
vt 0.005663 0.049501 0.000000
vt -0.001180 0.044159 0.000000
vt 0.005663 0.043816 0.000000
vt -0.002594 0.038646 0.000000
vt 0.005663 0.038132 0.000000
vt -0.004466 0.033133 0.000000
vt 0.005663 0.032448 0.000000
vt -0.006692 0.027619 0.000000
vt 0.005663 0.026763 0.000000
vt -0.009153 0.022106 0.000000
vt 0.005663 0.021079 0.000000
vt -0.011715 0.016593 0.000000
vt 0.005663 0.015395 0.000000
vt -0.014237 0.011080 0.000000
vt 0.005663 0.009710 0.000000
vt -0.016584 0.005567 0.000000
vt -0.000000 -0.047865 0.000000
vt -0.000000 0.005663 0.000000
vt -0.009438 0.005663 0.000000
vt 0.062667 -0.022413 0.000000
vt 0.065583 -0.013436 0.000000
vt -0.027098 0.006753 0.000000
vt -0.044749 0.022413 0.000000
vt -0.065583 0.011335 0.000000
vt -0.062339 0.006684 0.000000
vt -0.031344 0.002995 0.000000
vt -0.058078 0.002942 0.000000
vt -0.036364 0.000357 0.000000
vt -0.053048 0.000324 0.000000
vt -0.041868 -0.001007 0.000000
vt -0.047539 -0.001018 0.000000
vt -0.072848 -0.007771 0.000000
vt 0.021388 0.011804 0.000000
vt 0.042595 0.023558 0.000000
vt 0.065583 0.011335 0.000000
vt 0.025250 0.007237 0.000000
vt 0.062394 0.006844 0.000000
vt 0.030054 0.003558 0.000000
vt 0.058129 0.003260 0.000000
vt 0.035540 0.000966 0.000000
vt 0.053019 0.000780 0.000000
vt 0.041410 -0.000399 0.000000
vt 0.047343 -0.000462 0.000000
vt -0.060897 -0.273141 0.000000
vt -0.055511 -0.274891 0.000000
vt 0.054768 0.082840 0.000000
vt 0.060897 0.083376 0.000000
vt -0.040933 0.274891 0.000000
vt -0.045933 0.272232 0.000000
vt 0.000000 -0.048691 0.000000
vt 0.002213 -0.048691 0.000000
vt -0.000000 0.005663 0.000000
vt 0.093068 -0.016928 0.000000
vt 0.094384 0.005663 0.000000
vt 0.258290 0.210847 0.000000
vt 0.260502 -0.210847 0.000000
vt 0.260502 0.210847 0.000000
vt 0.374300 -0.247709 0.000000
vt 0.374300 0.247709 0.000000
vt 0.258290 0.264375 0.000000
vt 0.000000 0.296150 0.000000
vt 0.000000 -0.296150 0.000000
vt 0.258290 -0.210847 0.000000
vt 0.258290 -0.264375 0.000000
vt 0.374300 -0.296150 0.000000
vt 0.374300 -0.264375 0.000000
vt 0.374300 0.264375 0.000000
vt 0.374300 0.296150 0.000000
vt 0.016584 0.005567 0.000000
vt 0.014237 0.011080 0.000000
vt -0.005663 0.009710 0.000000
vt -0.005663 0.015395 0.000000
vt 0.011715 0.016593 0.000000
vt -0.005663 0.021079 0.000000
vt 0.009153 0.022106 0.000000
vt -0.005663 0.026763 0.000000
vt 0.006692 0.027619 0.000000
vt -0.005663 0.032448 0.000000
vt 0.004466 0.033133 0.000000
vt -0.005663 0.038132 0.000000
vt 0.002594 0.038646 0.000000
vt -0.005663 0.043816 0.000000
vt 0.001180 0.044159 0.000000
vt -0.005663 0.049501 0.000000
vt 0.000299 0.049672 0.000000
vt -0.005663 0.055185 0.000000
vt -0.000000 0.055185 0.000000
vt 0.000000 0.005663 0.000000
vt 0.000000 -0.047865 0.000000
vt 0.009438 0.005663 0.000000
vt -0.062667 -0.022413 0.000000
vt 0.027098 0.006753 0.000000
vt -0.065583 -0.013436 0.000000
vt 0.044749 0.022413 0.000000
vt 0.065583 0.011335 0.000000
vt 0.062339 0.006684 0.000000
vt 0.031344 0.002995 0.000000
vt 0.058078 0.002942 0.000000
vt 0.036364 0.000357 0.000000
vt 0.053048 0.000324 0.000000
vt 0.041868 -0.001007 0.000000
vt 0.047539 -0.001018 0.000000
vt 0.072848 -0.007771 0.000000
vt -0.042595 0.023558 0.000000
vt -0.021388 0.011804 0.000000
vt -0.065583 0.011335 0.000000
vt -0.025250 0.007237 0.000000
vt -0.062394 0.006844 0.000000
vt -0.030054 0.003558 0.000000
vt -0.058129 0.003260 0.000000
vt -0.035540 0.000966 0.000000
vt -0.053019 0.000780 0.000000
vt -0.041410 -0.000399 0.000000
vt -0.047343 -0.000462 0.000000
vt 0.000000 0.264375 0.000000
vt 0.023596 0.264375 0.000000
vt 0.000000 0.296150 0.000000
vt 0.214500 0.296150 0.000000
vt 0.023596 0.258712 0.000000
vt 0.214500 -0.296150 0.000000
vt 0.023596 -0.258712 0.000000
vt 0.023596 -0.264375 0.000000
vt 0.000000 0.247709 0.000000
vt 0.000000 -0.247709 0.000000
vt 0.000000 -0.264375 0.000000
vt 0.000000 -0.296150 0.000000
vt 0.005663 0.296150 0.000000
vt 0.000000 0.296150 0.000000
vt 0.005663 -0.296150 0.000000
vt 0.000000 -0.296150 0.000000
vt 0.376704 0.296150 0.000000
vt -0.000000 0.296150 0.000000
vt 0.376704 -0.296150 0.000000
vt -0.000000 -0.296150 0.000000
vt 0.216904 0.296150 0.000000
vt 0.000000 0.296150 0.000000
vt 0.216904 -0.296150 0.000000
vt -0.000000 -0.296150 0.000000
vt 0.005663 0.296150 0.000000
vt 0.000000 0.296150 0.000000
vt 0.005663 -0.296150 0.000000
vt 0.000000 -0.296150 0.000000
vt 0.060897 -0.273141 0.000000
vt -0.054768 0.082840 0.000000
vt 0.055511 -0.274891 0.000000
vt -0.060897 0.083376 0.000000
vt 0.040933 0.274891 0.000000
vt 0.045933 0.272232 0.000000
vn 0.030432 0.017365 0.093661
vn 0.030432 0.017365 0.093661
vn 0.030432 0.017365 0.093661
vn 0.030432 0.017365 0.093661
vn 0.030432 0.017365 0.093661
vn 0.088295 0.000000 0.046947
vn 0.075026 0.000000 0.066114
vn 0.088295 0.000000 0.046947
vn 0.074544 0.000000 0.066657
vn 0.057681 0.000000 0.081688
vn 0.056489 0.000000 0.082517
vn 0.037200 0.000000 0.092823
vn 0.035171 0.000000 0.093611
vn 0.014699 0.000000 0.098914
vn 0.011821 0.000000 0.099299
vn -0.008602 0.000000 0.099629
vn -0.012211 0.000000 0.099252
vn -0.031435 0.000000 0.094931
vn -0.035537 0.000000 0.093472
vn -0.052559 0.000000 0.085074
vn -0.056812 0.000000 0.082295
vn -0.070828 0.000000 0.070593
vn -0.074805 0.000000 0.066364
vn -0.085248 0.000000 0.052277
vn -0.095106 0.000000 0.030902
vn -0.095106 0.000000 0.030902
vn -0.095106 0.000000 0.030902
vn 0.000000 -0.100000 0.000000
vn 0.000000 -0.100000 0.000000
vn 0.000000 -0.100000 0.000000
vn 0.000000 -0.100000 0.000000
vn 0.000000 -0.100000 0.000000
vn 0.000000 -0.100000 0.000000
vn 0.000000 -0.100000 0.000000
vn 0.000000 -0.100000 0.000000
vn 0.000000 -0.100000 0.000000
vn 0.000000 -0.100000 0.000000
vn 0.000000 -0.100000 0.000000
vn 0.000000 -0.100000 0.000000
vn 0.037315 0.090631 0.019841
vn 0.037315 0.090631 0.019841
vn 0.037315 0.090631 0.019841
vn 0.037315 0.090631 0.019841
vn 0.037315 0.090631 0.019841
vn 0.037315 0.090631 0.019841
vn 0.037315 0.090631 0.019841
vn 0.037315 0.090631 0.019841
vn 0.037315 0.090631 0.019841
vn 0.037315 0.090631 0.019841
vn 0.037315 0.090631 0.019841
vn 0.037315 0.090631 0.019841
vn 0.000000 -0.100000 0.000000
vn 0.000000 -0.100000 0.000000
vn 0.000000 -0.100000 0.000000
vn 0.000000 -0.100000 0.000000
vn 0.000000 -0.100000 0.000000
vn 0.000000 -0.100000 0.000000
vn 0.030432 -0.017365 0.093661
vn 0.030432 -0.017365 0.093661
vn 0.030432 -0.017365 0.093661
vn 0.030432 -0.017365 0.093661
vn 0.030432 -0.017365 0.093661
vn 0.030902 -0.000000 0.095106
vn 0.030902 -0.000000 0.095106
vn 0.030902 -0.000000 0.095106
vn 0.030902 -0.000000 0.095106
vn 0.030902 -0.000000 0.095106
vn 0.030902 -0.000000 0.095106
vn 0.030902 -0.000000 0.095106
vn 0.030902 -0.000000 0.095106
vn 0.030902 -0.000000 0.095106
vn 0.030902 -0.000000 0.095106
vn 0.030902 -0.000000 0.095106
vn 0.030902 -0.000000 0.095106
vn 0.030902 -0.000000 0.095106
vn 0.030902 -0.000000 0.095106
vn -0.085248 0.000000 0.052277
vn -0.070828 0.000000 0.070593
vn -0.074805 0.000000 0.066364
vn -0.056812 0.000000 0.082295
vn -0.052559 0.000000 0.085074
vn -0.035537 0.000000 0.093472
vn -0.031435 0.000000 0.094931
vn -0.012211 0.000000 0.099252
vn -0.008602 0.000000 0.099629
vn 0.011821 -0.000000 0.099299
vn 0.014699 -0.000000 0.098914
vn 0.035171 -0.000000 0.093611
vn 0.037200 -0.000000 0.092823
vn 0.056489 -0.000000 0.082517
vn 0.057681 -0.000000 0.081688
vn 0.074544 -0.000000 0.066657
vn 0.075026 -0.000000 0.066114
vn 0.088295 -0.000000 0.046947
vn 0.088295 -0.000000 0.046947
vn -0.095106 0.000000 0.030902
vn -0.095106 0.000000 0.030902
vn -0.095106 0.000000 0.030902
vn 0.000000 0.100000 0.000000
vn 0.000000 0.100000 0.000000
vn 0.000000 0.100000 0.000000
vn 0.000000 0.100000 0.000000
vn 0.000000 0.100000 0.000000
vn 0.000000 0.100000 0.000000
vn 0.000000 0.100000 0.000000
vn 0.000000 0.100000 0.000000
vn 0.000000 0.100000 0.000000
vn 0.000000 0.100000 0.000000
vn 0.000000 0.100000 0.000000
vn 0.000000 0.100000 0.000000
vn 0.037315 -0.090631 0.019841
vn 0.037315 -0.090631 0.019841
vn 0.037315 -0.090631 0.019841
vn 0.037315 -0.090631 0.019841
vn 0.037315 -0.090631 0.019841
vn 0.037315 -0.090631 0.019841
vn 0.037315 -0.090631 0.019841
vn 0.037315 -0.090631 0.019841
vn 0.037315 -0.090631 0.019841
vn 0.037315 -0.090631 0.019841
vn 0.037315 -0.090631 0.019841
vn 0.037315 -0.090631 0.019841
vn -0.046947 0.000000 0.088295
vn -0.046947 0.000000 0.088295
vn -0.046947 0.000000 0.088295
vn -0.046947 0.000000 0.088295
vn -0.046947 0.000000 0.088295
vn -0.046947 0.000000 0.088295
vn -0.046947 0.000000 0.088295
vn -0.046947 0.000000 0.088295
vn -0.046947 0.000000 0.088295
vn -0.046947 0.000000 0.088295
vn -0.046947 0.000000 0.088295
vn -0.046947 0.000000 0.088295
vn -0.095106 0.000000 0.030902
vn -0.095106 0.000000 0.030902
vn -0.095106 0.000000 0.030902
vn -0.095106 0.000000 0.030902
vn -0.030902 0.000000 -0.095106
vn -0.030902 0.000000 -0.095106
vn -0.030902 0.000000 -0.095106
vn -0.030902 0.000000 -0.095106
vn 0.046947 0.000000 -0.088295
vn 0.046947 0.000000 -0.088295
vn 0.046947 0.000000 -0.088295
vn 0.046947 0.000000 -0.088295
vn 0.088295 -0.000000 0.046947
vn 0.088295 -0.000000 0.046947
vn 0.088295 -0.000000 0.046947
vn 0.088295 -0.000000 0.046947
vn 0.000000 0.100000 0.000000
vn 0.000000 0.100000 0.000000
vn 0.000000 0.100000 0.000000
vn 0.000000 0.100000 0.000000
vn 0.000000 0.100000 0.000000
vn 0.000000 0.100000 0.000000
usemtl Steel_-_Satin
f 2/1/1 3/2/2 1/3/3
f 1/3/3 3/2/2 5/4/4
f 5/4/4 3/2/2 4/5/5
f 6/6/6 7/7/7 22/8/8
f 22/8/8 7/7/7 21/9/9
f 21/9/9 7/7/7 8/10/10
f 21/9/9 8/10/10 20/11/11
f 20/11/11 8/10/10 9/12/12
f 20/11/11 9/12/12 19/13/13
f 19/13/13 9/12/12 10/14/14
f 19/13/13 10/14/14 18/15/15
f 18/15/15 10/14/14 11/16/16
f 18/15/15 11/16/16 17/17/17
f 17/17/17 11/16/16 12/18/18
f 17/17/17 12/18/18 16/19/19
f 16/19/19 12/18/18 13/20/20
f 16/19/19 13/20/20 15/21/21
f 15/21/21 13/20/20 14/22/22
f 15/21/21 14/22/22 4/23/23
f 4/23/23 14/22/22 5/24/24
f 2/25/25 23/26/26 3/27/27
f 3/28/28 23/29/29 4/30/30
f 4/30/30 23/29/29 24/31/31
f 4/30/30 24/31/31 22/32/32
f 22/32/32 21/33/33 4/30/30
f 4/30/30 21/33/33 15/34/34
f 15/34/34 21/33/33 20/35/35
f 15/34/34 20/35/35 16/36/36
f 16/36/36 20/35/35 19/37/37
f 16/36/36 19/37/37 17/38/38
f 17/38/38 19/37/37 18/39/39
f 1/40/40 5/41/41 25/42/42
f 25/42/42 5/41/41 6/43/43
f 6/43/43 5/41/41 14/44/44
f 6/43/43 14/44/44 7/45/45
f 7/45/45 14/44/44 13/46/46
f 7/45/45 13/46/46 8/47/47
f 8/47/47 13/46/46 12/48/48
f 8/47/47 12/48/48 9/49/49
f 9/49/49 12/48/48 11/50/50
f 9/49/49 11/50/50 10/51/51
f 27/52/52 28/53/53 26/54/54
f 26/54/54 28/53/53 29/55/55
f 26/54/54 29/55/55 30/56/56
f 30/56/56 31/57/57 26/54/54
f 32/58/58 33/59/59 36/60/60
f 36/60/60 33/59/59 34/61/61
f 36/60/60 34/61/61 35/62/62
f 32/63/63 1/64/64 33/65/65
f 33/65/65 1/64/64 25/66/66
f 33/65/65 25/66/66 41/67/67
f 37/68/68 40/69/69 32/63/63
f 32/63/63 40/69/69 27/70/70
f 32/63/63 27/70/70 2/71/71
f 2/71/71 27/70/70 23/72/72
f 23/72/72 27/70/70 26/73/73
f 23/72/72 26/73/73 24/74/74
f 38/75/75 39/76/76 37/68/68
f 37/68/68 39/76/76 40/69/69
f 2/71/71 1/64/64 32/63/63
f 34/77/77 42/78/78 35/79/79
f 35/79/79 42/78/78 58/80/80
f 58/80/80 42/78/78 43/81/81
f 58/80/80 43/81/81 57/82/82
f 57/82/82 43/81/81 44/83/83
f 57/82/82 44/83/83 56/84/84
f 56/84/84 44/83/83 45/85/85
f 56/84/84 45/85/85 55/86/86
f 55/86/86 45/85/85 46/87/87
f 55/86/86 46/87/87 54/88/88
f 54/88/88 46/87/87 47/89/89
f 54/88/88 47/89/89 53/90/90
f 53/90/90 47/89/89 48/91/91
f 53/90/90 48/91/91 52/92/92
f 52/92/92 48/91/91 49/93/93
f 52/92/92 49/93/93 51/94/94
f 51/94/94 49/93/93 50/95/95
f 37/96/96 32/97/97 36/98/98
f 36/99/99 35/100/100 37/101/101
f 37/101/101 35/100/100 38/102/102
f 38/102/102 35/100/100 51/103/103
f 51/103/103 35/100/100 52/104/104
f 52/104/104 35/100/100 58/105/105
f 52/104/104 58/105/105 53/106/106
f 53/106/106 58/105/105 57/107/107
f 53/106/106 57/107/107 54/108/108
f 54/108/108 57/107/107 56/109/109
f 54/108/108 56/109/109 55/110/110
f 33/111/111 41/112/112 34/113/113
f 34/113/113 41/112/112 50/114/114
f 34/113/113 50/114/114 42/115/115
f 42/115/115 50/114/114 49/116/116
f 42/115/115 49/116/116 43/117/117
f 43/117/117 49/116/116 48/118/118
f 43/117/117 48/118/118 44/119/119
f 44/119/119 48/118/118 47/120/120
f 44/119/119 47/120/120 45/121/121
f 45/121/121 47/120/120 46/122/122
f 38/123/123 51/124/124 39/125/125
f 39/125/125 51/124/124 59/126/126
f 59/126/126 51/124/124 50/127/127
f 59/126/126 50/127/127 31/128/128
f 31/128/128 50/127/127 6/129/129
f 31/128/128 6/129/129 22/130/130
f 41/131/131 25/132/132 50/127/127
f 50/127/127 25/132/132 6/129/129
f 24/133/133 26/134/134 22/130/130
f 22/130/130 26/134/134 31/128/128
f 40/135/135 60/136/136 27/137/137
f 27/137/137 60/136/136 28/138/138
f 60/139/139 61/140/140 28/141/141
f 28/141/141 61/140/140 29/142/142
f 61/143/143 62/144/144 29/145/145
f 29/145/145 62/144/144 30/146/146
f 62/147/147 59/148/148 30/149/149
f 30/149/149 59/148/148 31/150/150
f 40/151/151 39/152/152 60/153/153
f 60/153/153 39/152/152 61/154/154
f 61/154/154 39/152/152 62/155/155
f 62/155/155 39/152/152 59/156/156
# 62 vertices
# 156 texture params
# 156 normals
# 120 facets

# 1 groups
